<?xml version="1.0" encoding="UTF-8"?>
<svg version="1.1" xmlns="http://www.w3.org/2000/svg" width="512" height="512">
<path d="M0 0 C11.46286922 9.85212498 17.97699751 21.78741539 20.05078125 36.7734375 C21.23004178 52.76148886 16.84859721 67.38635559 6.36328125 79.5859375 C-3.69987715 90.02514816 -16.20848321 95.90745417 -30.703125 96.9765625 C-47.32985796 97.25406013 -61.45785576 92.05464693 -73.47265625 80.47265625 C-83.85653441 69.15521176 -88.34821315 55.26458411 -88.16015625 40.05078125 C-87.1480966 24.32637301 -80.49625141 11.36796529 -68.94921875 0.7734375 C-48.83674934 -15.06918116 -20.46343369 -15.44921484 0 0 Z " fill="#150A33" transform="translate(225.94921875,213.2265625)"/>
<path d="M0 0 C11.37216073 8.74911771 20.45566777 21.01418979 22.4453125 35.62109375 C22.53425781 36.80832031 22.53425781 36.80832031 22.625 38.01953125 C22.74488281 39.36144531 22.74488281 39.36144531 22.8671875 40.73046875 C23.53456884 55.3736004 18.8731003 69.30294966 9.5234375 80.546875 C0.02707993 90.63046316 -12.99215828 97.42817553 -26.94140625 98.22265625 C-44.02508707 98.42305133 -57.41209019 94.44747911 -70.0859375 82.4375 C-80.99375329 70.91542155 -85.94597313 57.08502203 -85.6171875 41.33984375 C-84.59405481 27.31302461 -78.28715507 13.01300359 -67.68359375 3.640625 C-47.73800091 -11.52888031 -21.36499183 -14.75053942 0 0 Z " fill="#150A33" transform="translate(223.375,360.98046875)"/>
<path d="M0 0 C12.1900508 9.33021484 20.0490719 21.18496409 22.68359375 36.375 C24.44236606 50.9662962 21.15743886 64.68647738 13 77 C4.46107759 87.62322631 -7.23910046 96.17822607 -21 98 C-39.10526566 99.43250454 -53.23837581 96.46880757 -67.625 84.88671875 C-76.94984168 76.42897363 -84.07354115 63.72873904 -85 51 C-85.07992187 50.0203125 -85.15984375 49.040625 -85.2421875 48.03125 C-85.8476 33.35890011 -81.27141003 19.75812955 -71.8984375 8.46875 C-53.21495905 -11.33705754 -22.67826615 -15.22968607 0 0 Z " fill="#150A33" transform="translate(223,62)"/>
<path d="M0 0 C14.64313165 -0.66738134 28.57248091 3.9940872 39.81640625 13.34375 C49.89999441 22.84010757 56.69770678 35.85934578 57.4921875 49.80859375 C57.69258258 66.89227457 53.71701036 80.27927769 41.70703125 92.953125 C30.16316362 103.88156835 16.16054887 108.84733642 0.3515625 108.484375 C-14.31403518 107.32459559 -27.33483451 100.91761854 -37.30078125 90.203125 C-46.11851057 79.37032302 -50.30343175 68.27639632 -50.1484375 54.3671875 C-50.14013916 53.40192139 -50.13184082 52.43665527 -50.12329102 51.44213867 C-49.75328999 35.80597451 -42.96179895 23.37163808 -31.71484375 12.60546875 C-22.39574013 5.27379425 -11.74438898 1.04921054 0 0 Z " fill="#150A33" transform="translate(337.7109375,201.7578125)"/>
<path d="M0 0 C0.74636719 0.30035156 1.49273437 0.60070313 2.26171875 0.91015625 C14.90652056 6.64875982 23.94751603 17.11754786 29 29.9375 C34.4277964 45.14663784 33.01054556 60.53802805 26.375 75.0625 C19.13761128 88.7904216 7.56522012 97.17088959 -7 102 C-11.68402895 103.35067413 -16.28195886 103.2229439 -21.125 103.25 C-22.02476562 103.270625 -22.92453125 103.29125 -23.8515625 103.3125 C-38.75251509 103.39813766 -50.813973 97.08842373 -61.296875 86.828125 C-72.98701042 74.59740528 -75.50401888 60.59538834 -75.27734375 44.29296875 C-74.80800822 31.0371587 -68.14425098 19.66377577 -59.2578125 10.1015625 C-43.17740533 -4.86601372 -20.02551869 -8.09423063 0 0 Z " fill="#150A33" transform="translate(363,57)"/>
<path d="M0 0 C12.16754622 8.62534937 19.32586176 19.52796882 22.95703125 34.00390625 C24.72185812 45.3185907 23.66525486 56.06929538 19.375 66.68359375 C19.07464844 67.42996094 18.77429688 68.17632812 18.46484375 68.9453125 C12.72624018 81.59011431 2.25745214 90.63110978 -10.5625 95.68359375 C-25.77163784 101.11139015 -41.16302805 99.69413931 -55.6875 93.05859375 C-69.4154216 85.82120503 -77.79588959 74.24881387 -82.625 59.68359375 C-83.97567413 54.9995648 -83.8479439 50.40163489 -83.875 45.55859375 C-83.895625 44.65882813 -83.91625 43.7590625 -83.9375 42.83203125 C-84.0223905 28.06108418 -77.79845305 15.84271982 -67.578125 5.453125 C-49.38760653 -12.11157288 -20.86665443 -13.40950069 0 0 Z " fill="#150A33" transform="translate(371.625,360.31640625)"/>
</svg>
