<?xml version="1.0" encoding="UTF-8"?>
<svg version="1.1" xmlns="http://www.w3.org/2000/svg" width="512" height="512">
<path d="M0 0 C1.09757446 -0.00706559 2.19514893 -0.01413118 3.32598323 -0.02141088 C4.52635559 -0.0189958 5.72672795 -0.01658071 6.96347523 -0.01409245 C8.88265309 -0.02194746 8.88265309 -0.02194746 10.84060222 -0.02996117 C14.3901146 -0.04413669 17.93953939 -0.04580455 21.48907602 -0.04536426 C25.31813611 -0.04701288 29.14716016 -0.06008031 32.97620106 -0.07155704 C41.34820972 -0.09440338 49.72019304 -0.10232736 58.09222865 -0.10738349 C63.32115319 -0.11064114 68.55007037 -0.11716406 73.77899075 -0.12438488 C88.26029918 -0.14395086 102.74160078 -0.1603549 117.22292328 -0.16326141 C118.14956199 -0.16344898 119.07620069 -0.16363655 120.03091936 -0.16382981 C121.90939637 -0.16419605 123.78787338 -0.16455975 125.66635039 -0.16492092 C126.59881275 -0.16510373 127.53127511 -0.16528654 128.4919939 -0.16547489 C129.89239754 -0.16574572 129.89239754 -0.16574572 131.32109217 -0.16602201 C146.44575449 -0.16956297 161.57027437 -0.19658046 176.6948873 -0.23397278 C192.22825197 -0.27206786 207.76154599 -0.29141898 223.29495841 -0.29172093 C232.01432535 -0.29230525 240.7335224 -0.30078099 249.45284557 -0.32971859 C256.87819989 -0.35424863 264.30332237 -0.36150452 271.72870626 -0.34647106 C275.51537281 -0.33930854 279.3015817 -0.34013053 283.08819675 -0.36288166 C287.19889502 -0.38734268 291.30855495 -0.37281762 295.41928577 -0.35466862 C296.60850453 -0.36786858 297.79772328 -0.38106855 299.02297896 -0.39466852 C306.48608867 -0.31948298 312.33077215 0.89247465 318.50883961 5.26006222 C325.26850236 12.39347549 327.0534921 18.92811364 326.87993336 28.67803097 C326.23051246 34.94665163 324.11805934 39.73501086 319.57133961 44.13506222 C314.40425585 48.2060979 309.68326745 50.5063859 303.01767921 50.52012444 C301.92010475 50.52719003 300.82253029 50.53425562 299.69169599 50.54153532 C298.49132363 50.53912023 297.29095127 50.53670515 296.05420399 50.53421688 C294.77475208 50.53945356 293.49530017 50.54469024 292.177077 50.5500856 C288.62756462 50.56426113 285.07813983 50.56592898 281.5286032 50.5654887 C277.69954311 50.56713732 273.87051906 50.58020475 270.04147816 50.59168148 C261.66946949 50.61452782 253.29748618 50.6224518 244.92545056 50.62750793 C239.69652603 50.63076557 234.46760885 50.6372885 229.23868847 50.64450932 C214.75738004 50.66407529 200.27607844 50.68047934 185.79475594 50.68338585 C184.86811723 50.68357342 183.94147852 50.68376099 182.98675985 50.68395424 C181.10828284 50.68432049 179.22980584 50.68468419 177.35132883 50.68504535 C176.41886647 50.68522817 175.48640411 50.68541098 174.52568531 50.68559933 C173.12528167 50.68587015 173.12528167 50.68587015 171.69658705 50.68614645 C156.57192473 50.68968741 141.44740484 50.7167049 126.32279191 50.75409722 C110.78942724 50.79219229 95.25613322 50.81154342 79.7227208 50.81184536 C71.00335386 50.81242968 62.28415681 50.82090543 53.56483364 50.84984303 C46.13947932 50.87437306 38.71435685 50.88162896 31.28897295 50.8665955 C27.5023064 50.85943297 23.71609751 50.86025497 19.92948246 50.8830061 C15.8187842 50.90746712 11.70912426 50.89294205 7.59839344 50.87479305 C6.40917469 50.88799302 5.21995594 50.90119299 3.99470025 50.91479295 C-3.46840946 50.83960742 -9.31309293 49.62764979 -15.49116039 45.26006222 C-22.25082314 38.12664895 -24.03581288 31.5920108 -23.86225414 21.84209347 C-23.21283325 15.5734728 -21.10038012 10.78511357 -16.55366039 6.38506222 C-11.38657664 2.31402653 -6.66558823 0.01373853 0 0 Z " fill="#000000" transform="translate(104.49116039276123,350.7399377822876)"/>
<path d="M0 0 C1.09757446 -0.00706559 2.19514893 -0.01413118 3.32598323 -0.02141088 C4.52635559 -0.0189958 5.72672795 -0.01658071 6.96347523 -0.01409245 C8.88265309 -0.02194746 8.88265309 -0.02194746 10.84060222 -0.02996117 C14.3901146 -0.04413669 17.93953939 -0.04580455 21.48907602 -0.04536426 C25.31813611 -0.04701288 29.14716016 -0.06008031 32.97620106 -0.07155704 C41.34820972 -0.09440338 49.72019304 -0.10232736 58.09222865 -0.10738349 C63.32115319 -0.11064114 68.55007037 -0.11716406 73.77899075 -0.12438488 C88.26029918 -0.14395086 102.74160078 -0.1603549 117.22292328 -0.16326141 C118.14956199 -0.16344898 119.07620069 -0.16363655 120.03091936 -0.16382981 C121.90939637 -0.16419605 123.78787338 -0.16455975 125.66635039 -0.16492092 C126.59881275 -0.16510373 127.53127511 -0.16528654 128.4919939 -0.16547489 C129.89239754 -0.16574572 129.89239754 -0.16574572 131.32109217 -0.16602201 C146.44575449 -0.16956297 161.57027437 -0.19658046 176.6948873 -0.23397278 C192.22825197 -0.27206786 207.76154599 -0.29141898 223.29495841 -0.29172093 C232.01432535 -0.29230525 240.7335224 -0.30078099 249.45284557 -0.32971859 C256.87819989 -0.35424863 264.30332237 -0.36150452 271.72870626 -0.34647106 C275.51537281 -0.33930854 279.3015817 -0.34013053 283.08819675 -0.36288166 C287.19889502 -0.38734268 291.30855495 -0.37281762 295.41928577 -0.35466862 C296.60850453 -0.36786858 297.79772328 -0.38106855 299.02297896 -0.39466852 C306.48608867 -0.31948298 312.33077215 0.89247465 318.50883961 5.26006222 C325.26850236 12.39347549 327.0534921 18.92811364 326.87993336 28.67803097 C326.23051246 34.94665163 324.11805934 39.73501086 319.57133961 44.13506222 C314.40425585 48.2060979 309.68326745 50.5063859 303.01767921 50.52012444 C301.92010475 50.52719003 300.82253029 50.53425562 299.69169599 50.54153532 C298.49132363 50.53912023 297.29095127 50.53670515 296.05420399 50.53421688 C294.77475208 50.53945356 293.49530017 50.54469024 292.177077 50.5500856 C288.62756462 50.56426113 285.07813983 50.56592898 281.5286032 50.5654887 C277.69954311 50.56713732 273.87051906 50.58020475 270.04147816 50.59168148 C261.66946949 50.61452782 253.29748618 50.6224518 244.92545056 50.62750793 C239.69652603 50.63076557 234.46760885 50.6372885 229.23868847 50.64450932 C214.75738004 50.66407529 200.27607844 50.68047934 185.79475594 50.68338585 C184.86811723 50.68357342 183.94147852 50.68376099 182.98675985 50.68395424 C181.10828284 50.68432049 179.22980584 50.68468419 177.35132883 50.68504535 C176.41886647 50.68522817 175.48640411 50.68541098 174.52568531 50.68559933 C173.12528167 50.68587015 173.12528167 50.68587015 171.69658705 50.68614645 C156.57192473 50.68968741 141.44740484 50.7167049 126.32279191 50.75409722 C110.78942724 50.79219229 95.25613322 50.81154342 79.7227208 50.81184536 C71.00335386 50.81242968 62.28415681 50.82090543 53.56483364 50.84984303 C46.13947932 50.87437306 38.71435685 50.88162896 31.28897295 50.8665955 C27.5023064 50.85943297 23.71609751 50.86025497 19.92948246 50.8830061 C15.8187842 50.90746712 11.70912426 50.89294205 7.59839344 50.87479305 C6.40917469 50.88799302 5.21995594 50.90119299 3.99470025 50.91479295 C-3.46840946 50.83960742 -9.31309293 49.62764979 -15.49116039 45.26006222 C-22.25082314 38.12664895 -24.03581288 31.5920108 -23.86225414 21.84209347 C-23.21283325 15.5734728 -21.10038012 10.78511357 -16.55366039 6.38506222 C-11.38657664 2.31402653 -6.66558823 0.01373853 0 0 Z " fill="#000000" transform="translate(104.49116039276123,230.7399377822876)"/>
<path d="M0 0 C1.09757446 -0.00706559 2.19514893 -0.01413118 3.32598323 -0.02141088 C4.52635559 -0.0189958 5.72672795 -0.01658071 6.96347523 -0.01409245 C8.88265309 -0.02194746 8.88265309 -0.02194746 10.84060222 -0.02996117 C14.3901146 -0.04413669 17.93953939 -0.04580455 21.48907602 -0.04536426 C25.31813611 -0.04701288 29.14716016 -0.06008031 32.97620106 -0.07155704 C41.34820972 -0.09440338 49.72019304 -0.10232736 58.09222865 -0.10738349 C63.32115319 -0.11064114 68.55007037 -0.11716406 73.77899075 -0.12438488 C88.26029918 -0.14395086 102.74160078 -0.1603549 117.22292328 -0.16326141 C118.14956199 -0.16344898 119.07620069 -0.16363655 120.03091936 -0.16382981 C121.90939637 -0.16419605 123.78787338 -0.16455975 125.66635039 -0.16492092 C126.59881275 -0.16510373 127.53127511 -0.16528654 128.4919939 -0.16547489 C129.89239754 -0.16574572 129.89239754 -0.16574572 131.32109217 -0.16602201 C146.44575449 -0.16956297 161.57027437 -0.19658046 176.6948873 -0.23397278 C192.22825197 -0.27206786 207.76154599 -0.29141898 223.29495841 -0.29172093 C232.01432535 -0.29230525 240.7335224 -0.30078099 249.45284557 -0.32971859 C256.87819989 -0.35424863 264.30332237 -0.36150452 271.72870626 -0.34647106 C275.51537281 -0.33930854 279.3015817 -0.34013053 283.08819675 -0.36288166 C287.19889502 -0.38734268 291.30855495 -0.37281762 295.41928577 -0.35466862 C296.60850453 -0.36786858 297.79772328 -0.38106855 299.02297896 -0.39466852 C306.48608867 -0.31948298 312.33077215 0.89247465 318.50883961 5.26006222 C325.26850236 12.39347549 327.0534921 18.92811364 326.87993336 28.67803097 C326.23051246 34.94665163 324.11805934 39.73501086 319.57133961 44.13506222 C314.40425585 48.2060979 309.68326745 50.5063859 303.01767921 50.52012444 C301.92010475 50.52719003 300.82253029 50.53425562 299.69169599 50.54153532 C298.49132363 50.53912023 297.29095127 50.53670515 296.05420399 50.53421688 C294.77475208 50.53945356 293.49530017 50.54469024 292.177077 50.5500856 C288.62756462 50.56426113 285.07813983 50.56592898 281.5286032 50.5654887 C277.69954311 50.56713732 273.87051906 50.58020475 270.04147816 50.59168148 C261.66946949 50.61452782 253.29748618 50.6224518 244.92545056 50.62750793 C239.69652603 50.63076557 234.46760885 50.6372885 229.23868847 50.64450932 C214.75738004 50.66407529 200.27607844 50.68047934 185.79475594 50.68338585 C184.86811723 50.68357342 183.94147852 50.68376099 182.98675985 50.68395424 C181.10828284 50.68432049 179.22980584 50.68468419 177.35132883 50.68504535 C176.41886647 50.68522817 175.48640411 50.68541098 174.52568531 50.68559933 C173.12528167 50.68587015 173.12528167 50.68587015 171.69658705 50.68614645 C156.57192473 50.68968741 141.44740484 50.7167049 126.32279191 50.75409722 C110.78942724 50.79219229 95.25613322 50.81154342 79.7227208 50.81184536 C71.00335386 50.81242968 62.28415681 50.82090543 53.56483364 50.84984303 C46.13947932 50.87437306 38.71435685 50.88162896 31.28897295 50.8665955 C27.5023064 50.85943297 23.71609751 50.86025497 19.92948246 50.8830061 C15.8187842 50.90746712 11.70912426 50.89294205 7.59839344 50.87479305 C6.40917469 50.88799302 5.21995594 50.90119299 3.99470025 50.91479295 C-3.46840946 50.83960742 -9.31309293 49.62764979 -15.49116039 45.26006222 C-22.25082314 38.12664895 -24.03581288 31.5920108 -23.86225414 21.84209347 C-23.21283325 15.5734728 -21.10038012 10.78511357 -16.55366039 6.38506222 C-11.38657664 2.31402653 -6.66558823 0.01373853 0 0 Z " fill="#000000" transform="translate(104.49116039276123,110.7399377822876)"/>
</svg>
