<?xml version="1.0" encoding="UTF-8"?>
<svg version="1.1" xmlns="http://www.w3.org/2000/svg" width="512" height="512">
<path d="M0 0 C5.82485779 3.51996782 10.54466582 8.98962934 12.5625 15.5 C12.8984375 18.76953125 12.8984375 18.76953125 12.9375 22.3125 C12.96585938 23.47394531 12.99421875 24.63539062 13.0234375 25.83203125 C11.93813455 34.46846742 6.74599608 39.89559443 0.74969769 45.81616688 C-0.04635615 46.61803447 -0.84240998 47.41990207 -1.66258666 48.24606869 C-4.33712813 50.93522796 -7.02570679 53.60989376 -9.71443176 56.28486633 C-11.65351169 58.22633731 -13.5895754 60.17080633 -15.52579039 62.11513394 C-19.73947819 66.34326073 -23.96054717 70.563904 -28.18655777 74.77971268 C-34.47070019 81.04872584 -40.74336786 87.3291274 -47.01383106 93.6118192 C-58.21292696 104.83198166 -69.42344861 116.04067279 -80.63885581 127.2445283 C-90.45294504 137.04855863 -100.2633123 146.85629421 -110.06998253 156.66774559 C-110.72027468 157.31834329 -111.37056684 157.96894098 -112.04056482 158.63925376 C-114.6802433 161.28017757 -117.31990764 163.92111551 -119.95954871 166.56207671 C-144.72459329 191.33935909 -169.50129163 216.10495865 -194.28321617 240.86535658 C-216.30644709 262.86960264 -238.31931114 284.88416931 -260.32348633 306.9074707 C-285.03990473 331.64530092 -309.76276422 356.37666439 -334.49607295 381.09760827 C-337.13191809 383.73217052 -339.76774747 386.36674854 -342.40357018 389.00133324 C-343.05259294 389.65003969 -343.7016157 390.29874614 -344.37030582 390.96711037 C-354.17681871 400.76907082 -363.97838193 410.57596239 -373.77756691 420.38524818 C-384.9174363 431.53654299 -396.06440352 442.68068722 -407.22084502 453.81540332 C-413.46671867 460.04951541 -419.70701778 466.28908785 -425.93947273 472.53661572 C-430.1005736 476.70667024 -434.26887418 480.8694333 -438.44316266 485.02628658 C-440.82296715 487.39655578 -443.19829893 489.77088324 -445.56726513 492.15201298 C-448.1181506 494.71499331 -450.68093816 497.26544243 -453.24717426 499.81303883 C-453.98168413 500.55691336 -454.71619401 501.3007879 -455.47296175 502.06720409 C-461.55315916 508.05895515 -466.57950226 510.9276063 -475.375 510.9375 C-482.62273036 510.74555799 -487.10284625 509.61587925 -492.40234375 504.6640625 C-497.70149039 499.00730473 -499.71776463 493.95014124 -499.8125 486.125 C-499.84085937 485.06539063 -499.86921875 484.00578125 -499.8984375 482.9140625 C-498.75325515 474.4319492 -493.51538552 469.00012874 -487.62469769 463.18383312 C-486.82864385 462.38196553 -486.03259002 461.58009793 -485.21241334 460.75393131 C-482.53787187 458.06477204 -479.84929321 455.39010624 -477.16056824 452.71513367 C-475.22148831 450.77366269 -473.2854246 448.82919367 -471.34920961 446.88486606 C-467.13552181 442.65673927 -462.91445283 438.436096 -458.68844223 434.22028732 C-452.40429981 427.95127416 -446.13163214 421.6708726 -439.86116894 415.3881808 C-428.66207304 404.16801834 -417.45155139 392.95932721 -406.23614419 381.7554717 C-396.42205496 371.95144137 -386.6116877 362.14370579 -376.80501747 352.33225441 C-376.15472532 351.68165671 -375.50443316 351.03105902 -374.83443518 350.36074624 C-372.1947567 347.71982243 -369.55509236 345.07888449 -366.91545129 342.43792329 C-342.15040671 317.66064091 -317.37370837 292.89504135 -292.59178383 268.13464342 C-270.56855291 246.13039736 -248.55568886 224.11583069 -226.55151367 202.0925293 C-201.83509527 177.35469908 -177.11223578 152.62333561 -152.37892705 127.90239173 C-149.74308191 125.26782948 -147.10725253 122.63325146 -144.47142982 119.99866676 C-143.49789568 119.02560708 -143.49789568 119.02560708 -142.50469418 118.03288963 C-132.69818129 108.23092918 -122.89661807 98.42403761 -113.09743309 88.61475182 C-101.9575637 77.46345701 -90.81059648 66.31931278 -79.65415498 55.18459668 C-73.40828133 48.95048459 -67.16798222 42.71091215 -60.93552727 36.46338428 C-56.7744264 32.29332976 -52.60612582 28.1305667 -48.43183734 23.97371342 C-46.05203285 21.60344422 -43.67670107 19.22911676 -41.30773487 16.84798702 C-38.7568494 14.28500669 -36.19406184 11.73455757 -33.62782574 9.18696117 C-32.89331587 8.44308664 -32.15880599 7.6992121 -31.40203825 6.93279591 C-22.95154644 -1.39476977 -11.53801373 -5.07041619 0 0 Z " fill="#000000" transform="translate(499.4375,1.5)"/>
<path d="M0 0 C0.85078125 0.69738281 1.7015625 1.39476562 2.578125 2.11328125 C23.9829167 20.52274832 37.45891635 45.97289647 41 74 C41.87859287 90.19640518 42.02831102 106.44884041 37 122 C36.68651611 123.00643555 36.68651611 123.00643555 36.36669922 124.03320312 C28.54138191 148.58183901 12.15285314 171.45115679 -10 185 C-11.5159375 185.96486328 -11.5159375 185.96486328 -13.0625 186.94921875 C-38.61826688 202.47789654 -70.06126708 207.74881671 -99.3515625 201.03515625 C-117.14831099 195.98575759 -132.62183786 188.81630728 -147 177 C-147.91265625 176.26394531 -148.8253125 175.52789062 -149.765625 174.76953125 C-170.12612896 157.40493001 -182.71702578 132.17753843 -187 106 C-187.19529297 104.86304688 -187.19529297 104.86304688 -187.39453125 103.703125 C-191.60859925 73.81133601 -182.68846508 43.17798325 -164.87890625 19.13671875 C-145.08780998 -5.8050015 -118.31684085 -21.49587009 -86.71875 -25.53125 C-55.10756347 -28.96272748 -24.57462919 -20.1664683 0 0 Z M-124.08984375 47.28515625 C-132.62482131 57.57568718 -138.15290689 70.62619662 -139 84 C-139.05285156 84.72316406 -139.10570312 85.44632813 -139.16015625 86.19140625 C-139.8161024 103.50268076 -133.21046751 119.88835354 -121.984375 132.8984375 C-110.6715542 144.87933826 -95.32746677 153.64663967 -78.55859375 154.203125 C-57.99602923 154.52246938 -41.17129163 149.59333767 -26 135 C-12.80635598 121.24690818 -7.46093929 104.60529636 -7.58007812 85.85913086 C-8.07554221 68.12564537 -15.66345103 52.58345624 -28.47460938 40.37255859 C-41.91390798 28.27977102 -58.45627136 22.32828094 -76.484375 22.69140625 C-95.85407631 24.39163559 -111.14558401 33.13115261 -124.08984375 47.28515625 Z " fill="#000000" transform="translate(471,309)"/>
<path d="M0 0 C1.63113785 1.40959525 3.25709498 2.82523589 4.875 4.25 C5.95576847 5.10740965 7.03864219 5.96218329 8.125 6.8125 C29.28348542 25.56661208 41.80965113 54.35324549 43.875 82.25 C45.32872007 113.64416757 35.83775452 143.62125057 14.875 167.25 C-1.77816282 185.48108642 -22.68161589 198.38958143 -47.125 203.25 C-48.12660156 203.47171875 -49.12820312 203.6934375 -50.16015625 203.921875 C-78.94353165 209.41857121 -109.50255038 202.82636265 -134.125 187.25 C-160.2688564 169.47402108 -177.85274839 143.09442862 -184.265625 112.1484375 C-185.45252452 105.183402 -185.50949968 98.23842446 -185.5 91.1875 C-185.49945618 90.50468964 -185.49891235 89.82187927 -185.49835205 89.11837769 C-185.45799092 78.07573346 -184.5701328 67.79252587 -181.125 57.25 C-180.80354004 56.2297876 -180.80354004 56.2297876 -180.47558594 55.18896484 C-171.38324982 26.95243049 -151.42518441 2.88991338 -125.20605469 -11.03540039 C-85.43872923 -31.27017763 -35.15692435 -28.59176121 0 0 Z M-118.125 45.25 C-118.83398438 45.93707031 -119.54296875 46.62414062 -120.2734375 47.33203125 C-132.65732003 60.1192203 -136.64345936 76.27359207 -136.47241211 93.60839844 C-136.29209834 100.23775625 -135.73685093 106.09097314 -133.125 112.25 C-132.8775 112.84586914 -132.63 113.44173828 -132.375 114.05566406 C-124.98565034 131.42576726 -112.68520389 144.80957164 -94.98828125 152.21875 C-77.85012249 158.39129286 -60.23231444 157.95825712 -43.58203125 150.70703125 C-26.07092764 141.73592659 -14.95689622 128.75899875 -8.05859375 110.4140625 C-6.46812122 105.41982509 -5.45624103 100.47959325 -5.125 95.25 C-5.07214844 94.52683594 -5.01929688 93.80367188 -4.96484375 93.05859375 C-4.29257172 75.31645795 -11.19448154 58.8395849 -22.79296875 45.640625 C-35.94731472 32.15576783 -52.21820242 25.11367452 -71 24.8125 C-89.4718423 24.95245292 -105.17766104 32.14693703 -118.125 45.25 Z " fill="#000000" transform="translate(185.125,23.75)"/>
</svg>
