<?xml version="1.0" encoding="UTF-8"?>
<svg version="1.1" xmlns="http://www.w3.org/2000/svg" width="512" height="512">
<path d="M0 0 C1.56143586 -0.00462113 3.12286735 -0.0109821 4.68428993 -0.01890898 C8.93135645 -0.03545932 13.17805902 -0.02742186 17.42512608 -0.0149641 C22.0223532 -0.00585674 26.61952082 -0.01991134 31.21673584 -0.03088379 C40.20545632 -0.04861328 49.19404274 -0.04485394 58.18276834 -0.03323323 C65.49207561 -0.02417717 72.80134547 -0.02298428 80.11065674 -0.02732849 C81.15338009 -0.02794142 82.19610345 -0.02855436 83.27042449 -0.02918586 C85.38910152 -0.03046484 87.50777854 -0.0317617 89.62645555 -0.03307623 C109.46480026 -0.04446571 129.30307088 -0.03139396 149.14140344 -0.00987476 C166.14101828 0.00799472 183.14052384 0.00489016 200.14013672 -0.0135498 C219.91045872 -0.03498538 239.68071589 -0.04336723 259.4510479 -0.03110075 C261.56166457 -0.02982664 263.67228126 -0.02856915 265.78289795 -0.02732849 C267.34034522 -0.02640284 267.34034522 -0.02640284 268.92925608 -0.02545848 C276.22460216 -0.02201364 283.5199069 -0.02781521 290.81524658 -0.0372467 C299.71326199 -0.04849796 308.61113635 -0.04536112 317.50913572 -0.02412373 C322.0437238 -0.01365528 326.57807725 -0.00941921 331.11266327 -0.02272034 C335.27276367 -0.0347379 339.43241444 -0.02792952 343.5924747 -0.00681013 C345.08824117 -0.00238335 346.58404653 -0.00452065 348.07978749 -0.01431328 C361.23538226 -0.09375993 373.59317301 2.06905235 385.32177734 8.32043457 C385.98604736 8.66372803 386.65031738 9.00702148 387.3347168 9.36071777 C394.81852691 13.33434945 401.17307785 18.30120762 406.94677734 24.50793457 C407.61322266 25.16922363 408.27966797 25.8305127 408.96630859 26.51184082 C421.05985278 39.0174308 429.05343954 56.4461944 429.08099842 73.98464012 C429.08545626 75.30206841 429.08991411 76.6194967 429.09450704 77.97684705 C429.09441775 79.4374354 429.09422791 80.89802374 429.09394836 82.35861206 C429.09724867 83.91141242 429.10097459 85.46421192 429.10508984 87.01701033 C429.11509933 91.28655058 429.11882496 95.55607677 429.12147915 99.82562709 C429.12538541 104.42982883 429.13496364 109.03401947 429.14369202 113.63821411 C429.16344896 124.75976887 429.17352238 135.88132452 429.18241981 147.00289243 C429.18680461 152.24294274 429.19217098 157.48299203 429.19740868 162.72304153 C429.21442139 180.14757515 429.22891437 197.57210814 429.23615742 214.99664879 C429.23806725 219.51782609 429.23998759 224.03900338 429.24194336 228.56018066 C429.2424271 229.68387088 429.24291084 230.8075611 429.24340924 231.96530254 C429.25170508 250.15815469 429.27703429 268.35094099 429.30952404 286.5437644 C429.34262401 305.23101151 429.3606089 323.9182252 429.36380166 342.60550177 C429.3659642 353.09395978 429.37467525 363.5823218 429.40026283 374.07075119 C429.4220101 383.00558639 429.43000052 391.94030231 429.42029605 400.87516098 C429.4157628 405.42994662 429.41758048 409.98448634 429.4370575 414.53923798 C429.4547724 418.71821795 429.45362462 422.89677413 429.4381602 427.07575913 C429.43579667 428.5785636 429.44004174 430.08139807 429.45198885 431.58415692 C429.55019112 444.76486657 427.40188306 457.13215636 421.13427734 468.88293457 C420.61281128 469.88586548 420.61281128 469.88586548 420.08081055 470.90905762 C417.22724221 476.25925443 414.04777135 481.02221658 409.94677734 485.50793457 C409.14626953 486.39996582 408.34576172 487.29199707 407.52099609 488.21105957 C394.788156 501.69939379 377.09570517 511.31708986 358.37665594 512.78857887 C354.33299118 512.89554558 350.29889689 512.91341829 346.25431824 512.89561462 C344.69547354 512.89979506 343.13663189 512.90527646 341.5777958 512.91193444 C337.32401082 512.9263148 333.0704208 512.92216766 328.81662548 512.91476762 C324.2173063 512.91001976 319.61802832 512.92256011 315.01872253 512.93278503 C306.01958811 512.94994713 297.02052359 512.95081837 288.02137705 512.94557213 C280.70342073 512.94152413 273.38548502 512.94298146 266.06752968 512.94832039 C265.02439985 512.94906881 263.98127003 512.94981723 262.90653021 512.95058833 C260.78712858 512.95211988 258.66772696 512.95365823 256.54832534 512.9552033 C236.68997967 512.96891914 216.83167345 512.96349724 196.97332869 512.95201809 C178.82617953 512.94208813 160.67913238 512.95502393 142.53199895 512.97895228 C123.8761613 513.00336511 105.2203711 513.01294569 86.5645178 513.00629956 C76.09964965 513.002812 65.63485992 513.00500866 55.17000389 513.02255058 C46.26094339 513.03729993 37.35201651 513.0378724 28.44295856 513.02047967 C23.90231074 513.01198953 19.36190132 513.00977129 14.82126617 513.02513123 C10.65550268 513.03904795 6.49018026 513.0341264 2.32444183 513.01489199 C0.82656364 513.01115292 -0.67135049 513.01399276 -2.16919646 513.02450364 C-15.33074679 513.1102122 -27.69510828 510.95361879 -39.42822266 504.69543457 C-40.09684326 504.34779053 -40.76546387 504.00014648 -41.4543457 503.64196777 C-46.80454252 500.78839944 -51.56750466 497.60892858 -56.05322266 493.50793457 C-56.94525391 492.70742676 -57.83728516 491.90691895 -58.75634766 491.08215332 C-72.24468188 478.34931323 -81.86237794 460.6568624 -83.33386695 441.93781316 C-83.44083367 437.89414841 -83.45870638 433.86005412 -83.44090271 429.81547546 C-83.44508315 428.25663077 -83.45056454 426.69778911 -83.45722252 425.13895303 C-83.47160288 420.88516804 -83.46745574 416.63157803 -83.46005571 412.3777827 C-83.45530785 407.77846352 -83.46784819 403.17918555 -83.47807312 398.57987976 C-83.49523521 389.58074533 -83.49610646 380.58168081 -83.49086022 371.58253428 C-83.48681222 364.26457796 -83.48826955 356.94664224 -83.49360847 349.6286869 C-83.4943569 348.58555708 -83.49510532 347.54242725 -83.49587642 346.46768743 C-83.49740796 344.3482858 -83.49894631 342.22888418 -83.50049139 340.10948256 C-83.51420723 320.2511369 -83.50878533 300.39283067 -83.49730618 280.53448591 C-83.48737622 262.38733676 -83.50031201 244.2402896 -83.52424037 226.09315618 C-83.54865319 207.43731852 -83.55823378 188.78152833 -83.55158764 170.12567502 C-83.54810009 159.66080688 -83.55029674 149.19601714 -83.56783867 138.73116112 C-83.58258801 129.82210062 -83.58316049 120.91317374 -83.56576776 112.00411578 C-83.55727761 107.46346796 -83.55505938 102.92305855 -83.57041931 98.3824234 C-83.58433603 94.21665991 -83.57941449 90.05133749 -83.56018008 85.88559905 C-83.55644101 84.38772086 -83.55928085 82.88980674 -83.56979173 81.39196076 C-83.65552205 68.22706786 -81.49527369 55.87043248 -75.24072266 44.13293457 C-74.72687012 43.13652954 -74.72687012 43.13652954 -74.20263672 42.11999512 C-71.36942897 36.77541636 -68.013017 32.08055423 -64.05322266 27.50793457 C-63.45638672 26.71516113 -62.85955078 25.9223877 -62.24462891 25.10559082 C-46.85249345 6.86001136 -23.04040192 -0.15084566 0 0 Z M-34.05322266 55.50793457 C-42.9475426 67.65906117 -43.20469579 80.24091808 -43.18693542 94.75250244 C-43.18880544 96.2027849 -43.1911069 97.65306685 -43.19380075 99.10334802 C-43.19990164 103.07546563 -43.19978717 107.04756214 -43.19860637 111.01968336 C-43.19840193 115.30884085 -43.20392526 119.59799164 -43.20866394 123.887146 C-43.21696168 132.28555398 -43.21971839 140.68395494 -43.22027632 149.08236668 C-43.2207519 155.91083102 -43.22280874 162.73929304 -43.22597694 169.56775665 C-43.23478115 188.93851468 -43.23939669 208.30926717 -43.23864647 227.68002722 C-43.23860651 228.72377375 -43.23856656 229.76752029 -43.23852539 230.84289551 C-43.23848451 231.88792017 -43.23844363 232.93294483 -43.23840151 234.00963691 C-43.23799511 250.9433304 -43.24756367 267.87700165 -43.26166376 284.8106887 C-43.27603584 302.20867242 -43.28293348 319.60664529 -43.28206998 337.0046351 C-43.2817383 346.76801 -43.28447282 356.53136159 -43.29524803 366.29473114 C-43.30436398 374.60776115 -43.30651929 382.92075728 -43.29973861 391.23379013 C-43.29647893 395.47221378 -43.29639673 399.71057244 -43.30509186 403.94898987 C-43.31298224 407.83522639 -43.31149966 411.72134668 -43.30280773 415.60758045 C-43.30127831 417.00727691 -43.30306766 418.40698216 -43.3086678 419.80666825 C-43.36908118 435.98866476 -41.71671221 449.28942684 -30.29541016 461.46496582 C-18.28020427 472.41261857 -4.20261324 472.66048762 11.19134521 472.64164734 C12.64162767 472.64351735 14.09190963 472.64581881 15.54219079 472.64851266 C19.5143084 472.65461355 23.48640491 472.65449909 27.45852613 472.65331829 C31.74768363 472.65311385 36.03683442 472.65863717 40.32598877 472.66337585 C48.72439675 472.6716736 57.12279771 472.6744303 65.52120945 472.67498823 C72.34967379 472.67546381 79.17813582 472.67752065 86.00659943 472.68068886 C105.37735745 472.68949306 124.74810995 472.6941086 144.11886999 472.69335838 C145.16261653 472.69331843 146.20636306 472.69327847 147.28173828 472.6932373 C148.32676294 472.69319642 149.37178761 472.69315554 150.44847968 472.69311342 C167.38217317 472.69270703 184.31584442 472.70227559 201.24953148 472.71637567 C218.64751519 472.73074776 236.04548807 472.7376454 253.44347787 472.7367819 C263.20685278 472.73645021 272.97020436 472.73918473 282.73357391 472.74995995 C291.04660393 472.7590759 299.35960005 472.7612312 307.6726329 472.75445052 C311.91105655 472.75119085 316.14941522 472.75110865 320.38783264 472.75980377 C324.27406917 472.76769415 328.16018945 472.76621158 332.04642323 472.75751964 C333.44611969 472.75599022 334.84582493 472.75777958 336.24551103 472.76337972 C352.42750753 472.82379309 365.72826962 471.17142412 377.90380859 459.75012207 C388.85146134 447.73491618 389.0993304 433.65732515 389.08049011 418.2633667 C389.08236012 416.81308424 389.08466159 415.36280229 389.08735543 413.91252112 C389.09345632 409.94040351 389.09334186 405.968307 389.09216106 401.99618578 C389.09195662 397.70702829 389.09747994 393.4178775 389.10221863 389.12872314 C389.11051637 380.73031516 389.11327307 372.3319142 389.11383101 363.93350247 C389.11430658 357.10503813 389.11636343 350.2765761 389.11953163 343.44811249 C389.12833584 324.07735446 389.13295138 304.70660197 389.13220116 285.33584192 C389.1321612 284.29209539 389.13212125 283.24834885 389.13208008 282.17297363 C389.1320392 281.12794897 389.13199832 280.08292431 389.1319562 279.00623223 C389.1315498 262.07253874 389.14111836 245.13886749 389.15521844 228.20518044 C389.16959053 210.80719672 389.17648817 193.40922385 389.17562467 176.01123405 C389.17529299 166.24785914 389.17802751 156.48450755 389.18880272 146.721138 C389.19791867 138.40810799 389.20007397 130.09511186 389.1932933 121.78207901 C389.19003362 117.54365536 389.18995142 113.3052967 389.19864655 109.06687927 C389.20653692 105.18064275 389.20505435 101.29452246 389.19636241 97.40828869 C389.194833 96.00859223 389.19662235 94.60888698 389.20222249 93.20920089 C389.26263587 77.02720438 387.61026689 63.7264423 376.18896484 51.55090332 C364.17375896 40.60325057 350.09616793 40.35538152 334.70220947 40.3742218 C333.25192701 40.37235179 331.80164506 40.37005033 330.3513639 40.36735648 C326.37924629 40.36125559 322.40714978 40.36137005 318.43502855 40.36255085 C314.14587106 40.36275529 309.85672027 40.35723197 305.56756592 40.35249329 C297.16915794 40.34419554 288.77075698 40.34143884 280.37234524 40.34088091 C273.5438809 40.34040533 266.71541887 40.33834849 259.88695526 40.33518028 C240.51619723 40.32637608 221.14544474 40.32176054 201.7746847 40.32251076 C200.20906489 40.32257069 200.20906489 40.32257069 198.61181641 40.32263184 C197.56679174 40.32267272 196.52176708 40.3227136 195.44507501 40.32275572 C178.51138152 40.32316211 161.57771027 40.31359355 144.64402321 40.29949347 C127.24603949 40.28512138 109.84806662 40.27822375 92.45007682 40.27908725 C82.68670191 40.27941893 72.92335033 40.27668441 63.15998077 40.26590919 C54.84695076 40.25679324 46.53395464 40.25463794 38.22092178 40.26141862 C33.98249814 40.26467829 29.74413947 40.26476049 25.50572205 40.25606537 C21.61948552 40.24817499 17.73336524 40.24965756 13.84713146 40.2583495 C12.447435 40.25987892 11.04772976 40.25808956 9.64804366 40.25248943 C-7.58507402 40.18815182 -21.95736415 42.23255641 -34.05322266 55.50793457 Z " fill="#000000" transform="translate(83.05322265625,-0.5079345703125)"/>
</svg>
