<?xml version="1.0" encoding="UTF-8"?>
<svg version="1.1" xmlns="http://www.w3.org/2000/svg" width="512" height="512">
<path d="M0 0 C0.99702942 0.00304138 1.99405884 0.00608276 3.02130127 0.00921631 C19.42523251 0.08285285 35.27778134 1.04290117 51.375 4.4375 C52.91389893 4.75895996 52.91389893 4.75895996 54.48388672 5.08691406 C95.44862863 13.93545288 133.80949222 32.06561272 166.375 58.4375 C166.91946777 58.87755371 167.46393555 59.31760742 168.02490234 59.77099609 C182.05744245 71.2171946 195.45623515 83.95383991 206.375 98.4375 C206.78878906 98.97487793 207.20257813 99.51225586 207.62890625 100.06591797 C215.3174756 110.06610165 222.03181838 120.5409453 228.375 131.4375 C228.7369043 132.04996582 229.09880859 132.66243164 229.47167969 133.29345703 C244.39512538 158.76328038 253.23429306 188.33390652 257.375 217.4375 C257.55232666 218.6531665 257.72965332 219.86883301 257.91235352 221.12133789 C259.50419532 232.74836006 259.73337713 244.27732411 259.6875 256 C259.68476578 257.45191742 259.68476578 257.45191742 259.68197632 258.9331665 C259.63544313 273.62461803 259.18313253 287.97317326 256.375 302.4375 C256.19807617 303.35499023 256.02115234 304.27248047 255.83886719 305.21777344 C250.61332953 331.43571279 241.8918526 355.83464774 229.375 379.4375 C228.45460938 381.17386719 228.45460938 381.17386719 227.515625 382.9453125 C212.32235052 410.50666579 190.31319001 436.19385732 165.375 455.4375 C164.81006836 455.88416016 164.24513672 456.33082031 163.66308594 456.79101562 C152.81260893 465.36237052 141.39944726 472.62567876 129.375 479.4375 C128.59253906 479.88367676 127.81007813 480.32985352 127.00390625 480.78955078 C88.55286555 502.50336571 44.72155466 512.92592761 0.75 512.75 C-0.22088562 512.74784485 -1.19177124 512.7456897 -2.19207764 512.74346924 C-16.52864736 512.69242422 -30.53365265 512.30535629 -44.625 509.4375 C-46.1721167 509.13150879 -46.1721167 509.13150879 -47.75048828 508.81933594 C-92.12161435 499.84187647 -133.86501665 479.66079261 -167.14453125 448.734375 C-169.26653855 446.76942966 -171.42408911 444.87501536 -173.625 443 C-181.62023002 436.01848013 -188.86055036 428.46898343 -195.45703125 420.15625 C-196.85793974 418.39943503 -198.29122552 416.66774767 -199.76171875 414.96875 C-225.89623593 384.56450022 -241.30244895 344.47663115 -248.9375 305.5625 C-249.08485596 304.81661621 -249.23221191 304.07073242 -249.3840332 303.30224609 C-252.17939785 287.91218346 -253.00636284 272.42474264 -252.9375 256.8125 C-252.93567719 255.94553497 -252.93385437 255.07856995 -252.93197632 254.18533325 C-252.73302292 197.66377323 -235.02787412 140.33547297 -198.625 96.4375 C-198.13950684 95.85049316 -197.65401367 95.26348633 -197.15380859 94.65869141 C-186.94374897 82.40726383 -175.97714263 70.56756406 -163.625 60.4375 C-163.13016113 60.0235498 -162.63532227 59.60959961 -162.12548828 59.18310547 C-147.41757146 46.90589685 -131.61692619 36.29515718 -114.625 27.4375 C-113.86445313 27.03821289 -113.10390625 26.63892578 -112.3203125 26.22753906 C-77.51554479 8.19157327 -39.05575086 -0.25514838 0 0 Z M-139.625 80.4375 C-140.19702148 80.90800781 -140.76904297 81.37851563 -141.35839844 81.86328125 C-154.28941859 92.55800387 -165.56190939 103.9952904 -175.625 117.4375 C-176.24906738 118.25444336 -176.24906738 118.25444336 -176.88574219 119.08789062 C-199.32993873 148.52698744 -213.15905266 183.93725764 -218.625 220.4375 C-218.80160156 221.59620605 -218.97820312 222.75491211 -219.16015625 223.94873047 C-220.64058594 234.54569908 -221.02535614 244.99502125 -221 255.6875 C-220.99945618 256.55712372 -220.99891235 257.42674744 -220.99835205 258.32272339 C-220.89166375 295.67600615 -212.51997842 332.49122097 -194.625 365.4375 C-194.09737061 366.43040039 -194.09737061 366.43040039 -193.55908203 367.44335938 C-180.09662347 392.73462984 -161.33817306 415.90384023 -138.625 433.4375 C-137.99867676 433.92379883 -137.37235352 434.41009766 -136.72705078 434.91113281 C-119.27118341 448.33485811 -100.21221822 458.65861624 -79.625 466.4375 C-78.91520996 466.70755859 -78.20541992 466.97761719 -77.47412109 467.25585938 C-21.2712849 488.2396332 40.81017625 487.04348336 95.58544922 462.44482422 C100.2639926 460.25961674 104.82775737 457.88193145 109.375 455.4375 C110.03306641 455.09106445 110.69113281 454.74462891 111.36914062 454.38769531 C121.72019313 448.92213957 131.14699887 442.63034697 140.375 435.4375 C141.34050781 434.68597656 142.30601562 433.93445313 143.30078125 433.16015625 C189.43274036 396.24123673 219.63162631 343.13575578 227.375 284.4375 C227.47071289 283.72956299 227.56642578 283.02162598 227.66503906 282.29223633 C228.6469731 273.97483267 228.61862489 265.61338697 228.625 257.25 C228.62567474 256.45270477 228.62634949 255.65540955 228.62704468 254.83395386 C228.5638844 207.6827423 213.61768563 161.37120397 185.375 123.4375 C184.71830322 122.54756348 184.71830322 122.54756348 184.04833984 121.63964844 C148.56073361 73.91085606 95.18389021 41.9153417 36.35888672 32.828125 C-24.71732108 24.83254879 -91.69780668 40.7857159 -139.625 80.4375 Z " fill="#4DDAA4" transform="translate(252.625,-0.4375)"/>
<path d="M0 0 C1.65177246 0.14550293 1.65177246 0.14550293 3.33691406 0.29394531 C53.53214444 5.06414952 104.75823222 25.62613773 137.71484375 65.22265625 C138.28332031 65.93292969 138.85179687 66.64320312 139.4375 67.375 C140.55318359 68.73431641 140.55318359 68.73431641 141.69140625 70.12109375 C175.38442829 111.9342078 189.10286185 166.59714795 183.66601562 219.61938477 C179.44600555 254.75213436 167.51066938 289.38154346 145.4375 317.375 C144.70015625 318.32117188 143.9628125 319.26734375 143.203125 320.2421875 C135.45043123 329.94680063 127.19378455 339.633948 117.4375 347.375 C116.64811035 348.00825195 116.64811035 348.00825195 115.84277344 348.65429688 C83.64283125 374.29466591 45.27941699 388.38706871 4.4375 392.375 C3.19613281 392.49746094 1.95476562 392.61992187 0.67578125 392.74609375 C-49.04717429 396.75361554 -99.39533219 379.00813956 -137.5625 347.375 C-178.33753705 311.95245221 -203.32143024 263.54357489 -207.41308594 209.54541016 C-208.6408332 191.71097685 -208.6408332 191.71097685 -203.5625 185.375 C-199.92670505 181.82788298 -196.99620215 181.08921773 -192.0625 180.875 C-187.1417349 181.07530251 -184.26239473 181.94582928 -180.5625 185.375 C-175.44660836 191.07970181 -175.66313161 197.4190604 -175.125 204.8125 C-171.84152223 241.82856334 -160.43415573 277.12729478 -135.5625 305.375 C-134.77101563 306.29925781 -133.97953125 307.22351563 -133.1640625 308.17578125 C-127.47672477 314.6614992 -121.42701004 320.16305719 -114.5625 325.375 C-113.52609375 326.17679687 -112.4896875 326.97859375 -111.421875 327.8046875 C-82.54690294 349.62626384 -46.77568862 359.86738858 -10.875 359.6875 C-10.08025269 359.68501251 -9.28550537 359.68252502 -8.4666748 359.67996216 C3.39482509 359.62257742 14.8816541 359.28985794 26.4375 356.375 C27.82702881 356.02840332 27.82702881 356.02840332 29.24462891 355.67480469 C71.78976022 344.75523103 107.70519344 320.43171964 130.4375 282.375 C133.39070278 277.17378348 135.99866261 271.83414716 138.4375 266.375 C138.71287598 265.76092285 138.98825195 265.1468457 139.27197266 264.51416016 C146.03939409 249.15590718 150.09247833 232.96055116 152.4375 216.375 C152.53321289 215.70082031 152.62892578 215.02664063 152.72753906 214.33203125 C157.90923027 173.47281746 146.44949611 130.94565589 121.59765625 98.08984375 C106.65000114 79.30391193 90.30544722 64.37024301 69.4375 52.375 C68.81713867 52.01809082 68.19677734 51.66118164 67.55761719 51.29345703 C59.15467213 46.56318997 50.44238426 43.14134726 41.3125 40.0625 C39.86520508 39.57402588 39.86520508 39.57402588 38.38867188 39.07568359 C24.64513007 34.62038506 11.11890863 32.75430893 -3.20703125 31.79370117 C-5.29572083 31.64979351 -7.38187719 31.48437644 -9.46875 31.31640625 C-10.68884766 31.23076416 -11.90894531 31.14512207 -13.16601562 31.05688477 C-18.0043504 30.08553133 -21.28772683 27.95747703 -24.375 24.125 C-26.62466991 18.9152381 -27.19536165 14.4884756 -25.4375 9.125 C-23.8392276 5.45329314 -22.06591616 3.44520046 -18.5625 1.375 C-12.24176213 -1.06957677 -6.67535373 -0.6176703 0 0 Z " fill="#43D5A3" transform="translate(266.5625,59.625)"/>
<path d="M0 0 C4.24359802 2.79691688 6.60885348 5.75001999 8.1875 10.5625 C9.13374911 15.58406439 8.06635476 19.30110064 5.75 23.8125 C2.80894783 27.5899306 -0.55566015 30.90979675 -3.96630859 34.25756836 C-4.97467113 35.26915468 -5.98173222 36.2820397 -6.9875946 37.29611206 C-9.7075661 40.03054919 -12.44579019 42.74599038 -15.1882205 45.45787883 C-18.0612191 48.30441547 -20.91827894 51.16687035 -23.77749634 54.02723694 C-28.57749672 58.82443356 -33.38893906 63.60990248 -38.20800781 68.38793945 C-43.77632991 73.90902424 -49.32875444 79.44569445 -54.87240541 84.99154371 C-60.78317687 90.90434225 -66.70531168 96.80565748 -72.63085222 102.70365071 C-74.33476676 104.4011774 -76.03654507 106.1008209 -77.73786545 107.80094719 C-80.41155773 110.47162305 -83.09278088 113.13450672 -85.77999306 115.79157639 C-86.76413634 116.76696895 -87.74577195 117.74489927 -88.72467995 118.72554588 C-90.0624036 120.06474573 -91.41028716 121.39377378 -92.75863647 122.72227478 C-93.50968847 123.46829925 -94.26074047 124.21432371 -95.03455162 124.98295498 C-99.1437362 128.37637107 -102.81159944 129.03488356 -108.08984375 129.17578125 C-113.84972908 128.20712061 -117.75374107 124.68656156 -121.76464844 120.68603516 C-122.27925125 120.1766893 -122.79385406 119.66734344 -123.3240509 119.14256287 C-125.01007867 117.46965716 -126.68498967 115.78611481 -128.359375 114.1015625 C-129.53384362 112.92911654 -130.70875711 111.75711608 -131.88409424 110.58554077 C-134.33990876 108.13413878 -136.79024134 105.67741916 -139.23681641 103.21679688 C-142.36946426 100.06703908 -145.51541396 96.93096716 -148.66558456 93.79874611 C-151.0919703 91.3832109 -153.51115309 88.96056352 -155.92823029 86.53571701 C-157.08543108 85.37651871 -158.24485424 84.21953448 -159.40654755 83.06483841 C-161.0293881 81.44963511 -162.64227125 79.82509334 -164.25292969 78.19775391 C-165.17193054 77.27636627 -166.0909314 76.35497864 -167.03778076 75.40567017 C-170.69816705 71.11495415 -171.67037589 67.45513094 -171.5 61.80078125 C-170.9542611 57.46045158 -169.0535635 54.63902246 -166.0625 51.5625 C-161.93873697 48.99660301 -158.12715233 47.40454541 -153.19703674 48.10359192 C-146.08483208 50.18663684 -141.89790457 54.38447053 -136.83984375 59.63671875 C-135.98693253 60.49811966 -135.1340213 61.35952057 -134.25526428 62.24702454 C-131.5515195 64.98418278 -128.86946299 67.74151263 -126.1875 70.5 C-124.35100546 72.36660897 -122.51312861 74.231859 -120.67382812 76.09570312 C-116.18309717 80.65235904 -111.70996015 85.22573269 -107.25 89.8125 C-104.06755756 88.40769738 -101.94236301 86.74739068 -99.49977112 84.28259277 C-98.76946686 83.55070236 -98.0391626 82.81881195 -97.28672791 82.06474304 C-96.49544998 81.26156143 -95.70417206 80.45837982 -94.88891602 79.63085938 C-93.62724609 78.36239922 -93.62724609 78.36239922 -92.34008789 77.0683136 C-90.03706764 74.75147053 -87.73845868 72.43034746 -85.44125104 70.10774422 C-83.03374976 67.67654315 -80.61936178 65.25220562 -78.20530701 62.82751465 C-71.02570714 55.61385377 -63.85544902 48.39092642 -56.69006348 41.16314697 C-51.1202392 35.54485234 -45.54725368 29.92978684 -39.96362823 24.32520342 C-37.56081123 21.91275992 -35.16112713 19.49736355 -32.76843452 17.07487488 C-30.09918618 14.37450488 -27.42091411 11.68339956 -24.74047852 8.99414062 C-23.95122482 8.19095901 -23.16197113 7.3877774 -22.34880066 6.56025696 C-21.24911453 5.46242134 -21.24911453 5.46242134 -20.12721252 4.34240723 C-19.49544885 3.70528053 -18.86368517 3.06815384 -18.21277714 2.41172028 C-12.78021031 -2.0145953 -6.3886224 -2.33430434 0 0 Z " fill="#4CD9A3" transform="translate(337.25,192.1875)"/>
<path d="M0 0 C3.43671067 2.79682103 5.97768387 5.32684765 6.9296875 9.76953125 C7.55447665 16.22568577 6.67068226 19.46978867 2.9296875 24.76953125 C-1.28930091 28.60497526 -5.28325329 29.06481702 -10.7890625 28.984375 C-15.46900083 28.54362738 -18.25312564 26.65297651 -21.3828125 23.26953125 C-24.29332587 18.95765959 -24.59132474 14.84457638 -24.0703125 9.76953125 C-22.21263103 4.50610043 -19.50239508 1.93530452 -15.0703125 -1.23046875 C-10.05778977 -2.90130966 -4.58995888 -2.72799443 0 0 Z " fill="#80F2A9" transform="translate(195.0703125,75.23046875)"/>
<path d="M0 0 C3.43671067 2.79682103 5.97768387 5.32684765 6.9296875 9.76953125 C7.44319804 15.07580681 7.20167207 18.71649014 4.25 23.2265625 C1.32852531 26.64071192 -1.86881154 28.43201891 -6.3125 29.11328125 C-11.27061334 29.31360906 -14.87551117 28.59858331 -19.0703125 25.76953125 C-23.19655829 21.30872499 -24.39323075 17.93836785 -24.28125 11.82421875 C-23.79899319 7.12668019 -21.56696989 3.99995552 -18.1328125 0.95703125 C-12.6622902 -2.95048468 -5.94062648 -3.5307497 0 0 Z " fill="#62E3A6" transform="translate(97.0703125,173.23046875)"/>
<path d="M0 0 C3.41915974 3.00471614 6.7874738 6.30570385 7.30078125 10.984375 C7.46848914 16.81001765 7.14086348 20.3048351 3.0625 24.8125 C-0.63739473 28.24167072 -3.5167349 29.11219749 -8.4375 29.3125 C-13.37120215 29.09828227 -16.30170505 28.35961702 -19.9375 24.8125 C-22.9110565 20.79638558 -24.28482463 17.21100008 -23.9375 12.1875 C-23.03665427 6.96259477 -20.79258229 3.49893845 -16.875 -0.0625 C-11.43040195 -2.14766521 -5.41239956 -2.18799131 0 0 Z " fill="#74ECA8" transform="translate(135.9375,114.1875)"/>
</svg>
